<?xml version="1.0" encoding="UTF-8"?>
<svg id="Layer_1" data-name="Layer 1" xmlns="http://www.w3.org/2000/svg" xmlns:xlink="http://www.w3.org/1999/xlink" viewBox="0 0 346.05 503.33">
  <defs>
    <style>
      .cls-1 {
        fill: #fff;
      }

      .cls-2 {
        fill: url(#linear-gradient-2);
      }

      .cls-2, .cls-3, .cls-4, .cls-5, .cls-6, .cls-7, .cls-8 {
        isolation: isolate;
      }

      .cls-2, .cls-3, .cls-4, .cls-5, .cls-6, .cls-8 {
        opacity: .7;
      }

      .cls-3 {
        fill: url(#linear-gradient-4);
      }

      .cls-9 {
        clip-path: url(#clippath-2);
      }

      .cls-4 {
        fill: url(#linear-gradient-6);
      }

      .cls-10 {
        clip-path: url(#clippath-1);
      }

      .cls-11 {
        fill: url(#radial-gradient);
      }

      .cls-12 {
        opacity: .2;
      }

      .cls-5 {
        fill: url(#linear-gradient);
      }

      .cls-13, .cls-7 {
        opacity: .6;
      }

      .cls-14 {
        clip-path: url(#clippath);
      }

      .cls-6 {
        fill: url(#linear-gradient-5);
      }

      .cls-15, .cls-7, .cls-16 {
        fill: none;
      }

      .cls-7 {
        stroke: #000;
      }

      .cls-7, .cls-16 {
        stroke-width: 2px;
      }

      .cls-16 {
        stroke: #07070c;
      }

      .cls-8 {
        fill: url(#linear-gradient-3);
      }
    </style>
    <clipPath id="clippath">
      <rect class="cls-15" x="-637.31" y="1.17" width="617" height="501"/>
    </clipPath>
    <linearGradient id="linear-gradient" x1="313.16" y1="286.44" x2="313.16" y2="285.44" gradientTransform="translate(-303103.03 81700.36) scale(966.75 -284.7)" gradientUnits="userSpaceOnUse">
      <stop offset="0" stop-color="#f2f1f1"/>
      <stop offset="1" stop-color="#fff" stop-opacity="0"/>
    </linearGradient>
    <linearGradient id="linear-gradient-2" x1="313.16" y1="286.44" x2="313.16" y2="285.44" gradientTransform="translate(-303148.92 81822.08) scale(966.75 -284.7)" gradientUnits="userSpaceOnUse">
      <stop offset="0" stop-color="#fff"/>
      <stop offset="1" stop-color="#fff" stop-opacity="0"/>
    </linearGradient>
    <radialGradient id="radial-gradient" cx="313.54" cy="286.63" fx="313.54" fy="286.63" r="1.2" gradientTransform="translate(-13345.25 209975.33) rotate(-54.06) scale(428.53 -391.51) skewX(19.47)" gradientUnits="userSpaceOnUse">
      <stop offset="0" stop-color="#20a268"/>
      <stop offset="1" stop-color="#000"/>
    </radialGradient>
    <clipPath id="clippath-1">
      <rect class="cls-15" y="1.17" width="346" height="501"/>
    </clipPath>
    <linearGradient id="linear-gradient-3" x1="313.78" y1="286.44" x2="313.78" y2="285.44" gradientTransform="translate(-169949.74 81700.36) scale(542.14 -284.7)" xlink:href="#linear-gradient"/>
    <linearGradient id="linear-gradient-4" x1="313.78" y1="286.44" x2="313.78" y2="285.44" gradientTransform="translate(-169975.48 81822.08) scale(542.14 -284.7)" xlink:href="#linear-gradient-2"/>
    <clipPath id="clippath-2">
      <rect class="cls-15" x="366.05" y="1.34" width="996" height="406"/>
    </clipPath>
    <linearGradient id="linear-gradient-5" x1="314.08" y1="286.31" x2="314.08" y2="285.31" gradientTransform="translate(-489324.73 66179.49) scale(1560.6 -230.72)" xlink:href="#linear-gradient"/>
    <linearGradient id="linear-gradient-6" x1="314.08" y1="286.31" x2="314.08" y2="285.31" gradientTransform="translate(-489398.81 66278.13) scale(1560.6 -230.72)" xlink:href="#linear-gradient-2"/>
  </defs>
  <g id="Group_11" data-name="Group 11">
    <g class="cls-14">
      <g id="Group_4" data-name="Group 4">
        <g id="Products_Sold_Graph" data-name="Products Sold Graph" class="cls-12">
          <path id="Filled.Graph" class="cls-5" d="M-835.42,392.66v-113.97s111.48,74.76,200.55,79.45c96.31-4.55,112.99-36.54,188.01-79.45,64.11-35.77,128.04-45.58,189.41-43.05s114.55,41.16,187.03,45.12c127.87-15.95,193.11-96.6,201.75-130.28V435.05l-966.75,.13v-42.52Z"/>
          <path id="Line.Graph" class="cls-7" d="M-834.53,278.98s110.76,76.54,198.33,78.19,121.21-39.5,188.28-78.09,130.84-45.17,189.55-43.88,115.78,41.73,187.91,43.88S118.36,209.19,131.34,149.14"/>
        </g>
        <g id="Products_Sold_Graph-2" data-name="Products Sold Graph-2" class="cls-12">
          <path id="Filled.Graph-2" class="cls-2" d="M-881.31,514.38v-113.97s111.48,74.76,200.55,79.45c96.31-4.55,112.99-36.54,188.01-79.45,64.11-35.77,128.04-45.58,189.41-43.05s114.55,41.16,187.03,45.12c127.87-15.95,193.11-96.6,201.75-130.28v284.58l-966.75,.13v-42.52Z"/>
          <path id="Line.Graph-2" class="cls-7" d="M-880.42,400.7s110.76,76.54,198.33,78.19,121.21-39.5,188.28-78.09,130.84-45.17,189.55-43.88,115.78,41.73,187.91,43.88,188.83-69.9,201.8-129.95"/>
        </g>
      </g>
    </g>
  </g>
  <g>
    <path id="BG-2" class="cls-11" d="M5-.83H341c2.76,0,5,2.24,5,5V499.17c0,2.76-2.24,5-5,5H5c-2.76,0-5-2.24-5-5V4.17C0,1.41,2.24-.83,5-.83Z"/>
    <g id="Group_12" data-name="Group 12">
      <g class="cls-10">
        <g id="Group_4-2" data-name="Group 4">
          <g id="Products_Sold_Graph-2" data-name="Products Sold Graph" class="cls-12">
            <path id="Filled.Graph-2" data-name="Filled.Graph" class="cls-8" d="M-111.1,392.66v-113.97S-48.58,353.44,1.37,358.14c54.01-4.55,63.36-36.54,105.43-79.45,35.95-35.77,71.8-45.58,106.21-43.05s64.24,41.16,104.89,45.12c71.71-15.95,108.29-96.6,113.14-130.28V435.05l-542.14,.13v-42.52Z"/>
            <path id="Line.Graph-2" data-name="Line.Graph" class="cls-7" d="M-110.6,278.98S-48.49,355.52,.62,357.17s67.97-39.5,105.59-78.09,73.37-45.17,106.29-43.88,64.92,41.73,105.37,43.88,105.89-69.9,113.17-129.95"/>
            <g id="Mar.Ellipse" class="cls-13">
              <circle class="cls-1" cx="106.1" cy="275.49" r="2.28"/>
              <circle class="cls-16" cx="106.1" cy="275.49" r="1.28"/>
            </g>
            <g id="Feb.Ellipse" class="cls-13">
              <path class="cls-1" d="M34.27,347.67c-.71,0-1.28-.57-1.28-1.28s.57-1.28,1.28-1.28,1.28,.57,1.28,1.28-.57,1.28-1.28,1.28Z"/>
              <path d="M34.27,346.12c-.15,0-.28,.12-.28,.28s.12,.28,.28,.28,.28-.12,.28-.28-.12-.28-.28-.28m0-2c1.26,0,2.28,1.02,2.28,2.28s-1.02,2.28-2.28,2.28-2.28-1.02-2.28-2.28,1.02-2.28,2.28-2.28Z"/>
            </g>
          </g>
          <g id="Products_Sold_Graph-2-2" data-name="Products Sold Graph-2" class="cls-12">
            <path id="Filled.Graph-2-2" data-name="Filled.Graph-2" class="cls-3" d="M-136.83,514.38v-113.97s62.51,74.76,112.46,79.45c54.01-4.55,63.36-36.54,105.43-79.45,35.95-35.77,71.8-45.58,106.21-43.05s64.24,41.16,104.89,45.12c71.71-15.95,108.29-96.6,113.14-130.28v284.58l-542.14,.13v-42.52Z"/>
            <path id="Line.Graph-2-2" data-name="Line.Graph-2" class="cls-7" d="M-136.33,400.7s62.11,76.54,111.22,78.19,67.97-39.5,105.59-78.09,73.37-45.17,106.29-43.88,64.92,41.73,105.37,43.88,105.89-69.9,113.17-129.95"/>
            <g id="Mar.Ellipse-2" class="cls-13">
              <path class="cls-1" d="M80.37,398.49c-.71,0-1.28-.57-1.28-1.28s.57-1.28,1.28-1.28,1.28,.57,1.28,1.28-.57,1.28-1.28,1.28Z"/>
              <path d="M80.37,396.93c-.15,0-.28,.12-.28,.28s.12,.28,.28,.28,.28-.12,.28-.28-.12-.28-.28-.28m0-2c1.26,0,2.28,1.02,2.28,2.28s-1.02,2.28-2.28,2.28-2.28-1.02-2.28-2.28,1.02-2.28,2.28-2.28Z"/>
            </g>
          </g>
        </g>
      </g>
    </g>
  </g>
  <g id="Group_13" data-name="Group 13">
    <g class="cls-9">
      <g id="Group_4-3" data-name="Group 4">
        <g id="Products_Sold_Graph-3" data-name="Products Sold Graph" class="cls-12">
          <path id="Filled.Graph-3" data-name="Filled.Graph" class="cls-6" d="M46.25,318.6v-92.36s179.95,60.58,323.74,64.39c155.47-3.69,182.4-29.61,303.5-64.39,103.49-28.98,206.69-36.94,305.75-34.89s184.92,33.36,301.93,36.57c206.42-12.93,311.74-78.28,325.68-105.58v230.62l-1560.6,.11v-34.46Z"/>
          <path id="Line.Graph-3" data-name="Line.Graph" class="cls-7" d="M47.68,226.48s178.79,62.03,320.16,63.36,195.66-32.01,303.94-63.28c108.28-31.27,211.21-36.61,305.98-35.56s186.89,33.82,303.33,35.56,304.81-56.65,325.76-105.31"/>
        </g>
        <g id="Products_Sold_Graph-2-3" data-name="Products Sold Graph-2" class="cls-12">
          <path id="Filled.Graph-2-3" data-name="Filled.Graph-2" class="cls-4" d="M-27.83,417.24v-92.36s179.95,60.58,323.74,64.39c155.47-3.69,182.4-29.61,303.5-64.39,103.49-28.98,206.69-36.94,305.75-34.89s184.92,33.36,301.93,36.57c206.42-12.93,311.74-78.28,325.68-105.58v230.62l-1560.6,.11v-34.46Z"/>
          <path id="Line.Graph-2-3" data-name="Line.Graph-2" class="cls-7" d="M-26.4,325.12s178.79,62.03,320.16,63.36,195.66-32.01,303.94-63.28c108.28-31.27,211.21-36.61,305.98-35.56s186.89,33.82,303.33,35.56,304.81-56.65,325.76-105.31"/>
        </g>
      </g>
    </g>
  </g>
</svg>