<?xml version="1.0" encoding="UTF-8"?>
<svg id="Layer_1" data-name="Layer 1" xmlns="http://www.w3.org/2000/svg" xmlns:xlink="http://www.w3.org/1999/xlink" viewBox="0 0 1366 556">
  <defs>
    <style>
      .cls-1 {
        fill: #fff;
      }

      .cls-2 {
        fill: url(#linear-gradient-2);
      }

      .cls-2, .cls-3 {
        opacity: .7;
      }

      .cls-2, .cls-3, .cls-4 {
        isolation: isolate;
      }

      .cls-5 {
        stroke: #010009;
      }

      .cls-5, .cls-6, .cls-4 {
        fill: none;
      }

      .cls-5, .cls-4 {
        stroke-width: 2px;
      }

      .cls-7 {
        opacity: .2;
      }

      .cls-3 {
        fill: url(#linear-gradient);
      }

      .cls-8, .cls-4 {
        opacity: .6;
      }

      .cls-9 {
        clip-path: url(#clippath);
      }

      .cls-10 {
        fill: #515151;
      }

      .cls-4 {
        stroke: #000;
      }
    </style>
    <clipPath id="clippath">
      <rect class="cls-6" y="-3.44" width="1366" height="556.82"/>
    </clipPath>
    <linearGradient id="linear-gradient" x1="1.43" y1="653.66" x2="1.43" y2="652.29" gradientTransform="translate(-1592.4 150977.83) scale(1560.6 -230.72)" gradientUnits="userSpaceOnUse">
      <stop offset="0" stop-color="#f1f1f1"/>
      <stop offset="1" stop-color="#fff" stop-opacity="0"/>
    </linearGradient>
    <linearGradient id="linear-gradient-2" x1="1.41" y1="653.51" x2="1.41" y2="652.13" gradientTransform="translate(-1666.48 151076.47) scale(1560.6 -230.72)" gradientUnits="userSpaceOnUse">
      <stop offset="0" stop-color="#fff"/>
      <stop offset="1" stop-color="#fff" stop-opacity="0"/>
    </linearGradient>
  </defs>
  <path id="Statistics.BG-2" class="cls-10" d="M6.86-1.03H1359.14c3.79,0,6.86,3.07,6.86,6.86V548.94c0,3.79-3.07,6.86-6.86,6.86H6.86c-3.79,0-6.86-3.07-6.86-6.86V5.83C0,2.04,3.07-1.03,6.86-1.03Z"/>
  <g id="Group_13" data-name="Group 13">
    <g class="cls-9">
      <g id="Group_4" data-name="Group 4">
        <g id="Products_Sold_Graph" data-name="Products Sold Graph" class="cls-7">
          <path id="Filled.Graph" class="cls-3" d="M-438.6,431.68v-126.67S-191.8,388.09,5.4,393.31c213.23-5.06,250.16-40.62,416.25-88.31,141.93-39.75,283.48-50.66,419.33-47.85,135.86,2.81,253.61,45.75,414.09,50.15,283.1-17.73,427.54-107.36,446.67-144.8V478.79l-2140.34,.15v-47.26Z"/>
          <path id="Line.Graph" class="cls-4" d="M-436.64,305.33S-191.43,390.4,2.45,392.23s268.35-43.9,416.85-86.79c148.5-42.89,289.67-50.21,419.64-48.77s256.32,46.39,416.02,48.77c159.7,2.39,418.04-77.69,446.77-144.43"/>
          <g id="Mar.Ellipse" class="cls-8">
            <circle class="cls-1" cx="414.52" cy="303.54" r="4.62"/>
            <circle class="cls-5" cx="414.52" cy="303.54" r="3.25"/>
          </g>
          <g id="Feb.Ellipse" class="cls-8">
            <path class="cls-1" d="M130.93,385.6c-1.79,0-3.25-1.46-3.25-3.25s1.46-3.25,3.25-3.25,3.25,1.46,3.25,3.25-1.46,3.25-3.25,3.25Z"/>
            <path d="M130.93,380.47c-1.04,0-1.88,.84-1.88,1.88s.84,1.88,1.88,1.88,1.88-.84,1.88-1.88-.84-1.88-1.88-1.88m0-2.74c2.55,0,4.62,2.07,4.62,4.62s-2.07,4.62-4.62,4.62-4.62-2.07-4.62-4.62,2.07-4.62,4.62-4.62Z"/>
          </g>
        </g>
        <g id="Products_Sold_Graph-2" data-name="Products Sold Graph-2" class="cls-7">
          <path id="Filled.Graph-2" class="cls-2" d="M-540.2,566.96v-126.67s246.8,83.09,444,88.31c213.23-5.06,250.16-40.62,416.25-88.31,141.93-39.75,283.48-50.66,419.33-47.85,135.86,2.81,253.61,45.75,414.09,50.15,283.1-17.73,427.54-107.36,446.67-144.8v316.29l-2140.34,.15v-47.26Z"/>
          <path id="Line.Graph-2" class="cls-4" d="M-538.24,440.62s245.21,85.07,439.09,86.9c193.88,1.83,268.35-43.9,416.85-86.79,148.5-42.89,289.67-50.21,419.64-48.77,129.97,1.44,256.32,46.39,416.02,48.77s418.04-77.69,446.77-144.43"/>
          <g id="Mar.Ellipse-2" class="cls-8">
            <path class="cls-1" d="M312.92,442.08c-1.79,0-3.25-1.46-3.25-3.25s1.46-3.25,3.25-3.25,3.25,1.46,3.25,3.25-1.46,3.25-3.25,3.25Z"/>
            <path d="M312.92,436.95c-1.04,0-1.88,.84-1.88,1.88s.84,1.88,1.88,1.88,1.88-.84,1.88-1.88-.84-1.88-1.88-1.88m0-2.74c2.55,0,4.62,2.07,4.62,4.62s-2.07,4.62-4.62,4.62-4.62-2.07-4.62-4.62,2.07-4.62,4.62-4.62Z"/>
          </g>
        </g>
      </g>
    </g>
  </g>
</svg>