<?xml version="1.0" encoding="UTF-8"?>
<svg id="Layer_1" data-name="Layer 1" xmlns="http://www.w3.org/2000/svg" xmlns:xlink="http://www.w3.org/1999/xlink" viewBox="0 0 617 556">
  <defs>
    <style>
      .cls-1 {
        fill: #fff;
      }

      .cls-2 {
        fill: url(#linear-gradient-2);
      }

      .cls-2, .cls-3 {
        opacity: .7;
      }

      .cls-2, .cls-3, .cls-4 {
        isolation: isolate;
      }

      .cls-5 {
        stroke: #010009;
      }

      .cls-5, .cls-6, .cls-4 {
        fill: none;
      }

      .cls-5, .cls-4 {
        stroke-width: 2px;
      }

      .cls-7 {
        opacity: .2;
      }

      .cls-3 {
        fill: url(#linear-gradient);
      }

      .cls-8, .cls-4 {
        opacity: .6;
      }

      .cls-9 {
        clip-path: url(#clippath);
      }

      .cls-10 {
        fill: #515151;
      }

      .cls-4 {
        stroke: #000;
      }
    </style>
    <clipPath id="clippath">
      <rect class="cls-6" x=".19" y="-1" width="617" height="557.14"/>
    </clipPath>
    <linearGradient id="linear-gradient" x1="-1802.93" y1="653.82" x2="-1802.93" y2="652.71" gradientTransform="translate(1743274.91 186309.75) scale(966.75 -284.7)" gradientUnits="userSpaceOnUse">
      <stop offset="0" stop-color="#f1f1f1"/>
      <stop offset="1" stop-color="#fff" stop-opacity="0"/>
    </linearGradient>
    <linearGradient id="linear-gradient-2" x1="-1802.93" y1="653.77" x2="-1802.93" y2="652.66" gradientTransform="translate(1743229.02 186431.47) scale(966.75 -284.7)" gradientUnits="userSpaceOnUse">
      <stop offset="0" stop-color="#fff"/>
      <stop offset="1" stop-color="#fff" stop-opacity="0"/>
    </linearGradient>
  </defs>
  <path id="Statistics.BG-2" class="cls-10" d="M3.1-.41H613.9c1.71,0,3.1,3.07,3.1,6.86V549.55c0,3.79-1.39,6.86-3.1,6.86H3.1c-1.71,0-3.1-3.07-3.1-6.86V6.45C0,2.66,1.39-.41,3.1-.41Z"/>
  <g class="cls-9">
    <g id="Group_4" data-name="Group 4">
      <g id="Products_Sold_Graph" data-name="Products Sold Graph" class="cls-7">
        <path id="Filled.Graph" class="cls-3" d="M-197.92,434.36v-126.74S-86.44,390.75,2.63,395.97c96.31-5.06,112.99-40.64,188.01-88.36,64.11-39.77,128.04-50.69,189.41-47.88s114.55,45.77,187.03,50.18c127.87-17.74,193.11-107.42,201.75-144.88V481.5l-966.75,.14v-47.28Z"/>
        <path id="Line.Graph" class="cls-4" d="M-197.03,307.95S-86.28,393.06,1.3,394.89c87.57,1.83,121.21-43.93,188.28-86.84s130.84-50.24,189.55-48.79c58.71,1.44,115.78,46.41,187.91,48.8s188.83-77.73,201.8-144.51"/>
        <g id="Mar.Ellipse" class="cls-8">
          <ellipse class="cls-1" cx="189.49" cy="306.15" rx="4.16" ry="4.63"/>
          <ellipse class="cls-5" cx="189.49" cy="306.15" rx="3.16" ry="3.51"/>
        </g>
        <g id="Feb.Ellipse" class="cls-8">
          <path class="cls-1" d="M61.4,388.52c-1.74,0-3.16-1.58-3.16-3.51s1.42-3.51,3.16-3.51,3.16,1.58,3.16,3.51-1.42,3.51-3.16,3.51Z"/>
          <path d="M61.4,382.6c-1.19,0-2.16,1.08-2.16,2.4s.97,2.4,2.16,2.4,2.16-1.08,2.16-2.4-.97-2.4-2.16-2.4m0-2.22c2.3,0,4.16,2.07,4.16,4.63s-1.86,4.63-4.16,4.63-4.16-2.07-4.16-4.63,1.86-4.63,4.16-4.63Z"/>
        </g>
      </g>
      <g id="Products_Sold_Graph-2" data-name="Products Sold Graph-2" class="cls-7">
        <path id="Filled.Graph-2" class="cls-2" d="M-243.81,569.72v-126.74s111.48,83.13,200.55,88.36c96.31-5.06,112.99-40.64,188.01-88.36,64.11-39.77,128.04-50.69,189.41-47.88,61.36,2.81,114.55,45.77,187.03,50.18,127.87-17.74,193.11-107.42,201.75-144.88v316.46l-966.75,.14v-47.28Z"/>
        <path id="Line.Graph-2" class="cls-4" d="M-242.92,443.3s110.76,85.12,198.33,86.95c87.57,1.83,121.21-43.93,188.28-86.84s130.84-50.24,189.55-48.79,115.78,46.41,187.91,48.8,188.83-77.73,201.8-144.51"/>
        <g id="Mar.Ellipse-2" class="cls-8">
          <path class="cls-1" d="M143.6,445.03c-1.74,0-3.16-1.58-3.16-3.51s1.42-3.51,3.16-3.51,3.16,1.58,3.16,3.51-1.42,3.51-3.16,3.51Z"/>
          <path d="M143.6,439.11c-1.19,0-2.16,1.08-2.16,2.4s.97,2.4,2.16,2.4,2.16-1.08,2.16-2.4-.97-2.4-2.16-2.4m0-2.22c2.3,0,4.16,2.07,4.16,4.63s-1.86,4.63-4.16,4.63-4.16-2.07-4.16-4.63,1.86-4.63,4.16-4.63Z"/>
        </g>
      </g>
    </g>
  </g>
</svg>