<?xml version="1.0" encoding="UTF-8"?>
<svg id="Layer_1" data-name="Layer 1" xmlns="http://www.w3.org/2000/svg" viewBox="0 0 88.14 88.14">
  <defs>
    <style>
      .cls-1 {
        fill: #fff;
      }
    </style>
  </defs>
  <path id="Icon_awesome-user-circle" data-name="Icon awesome-user-circle" class="cls-1" d="M44.07,0C19.73,0,0,19.73,0,44.07s19.73,44.07,44.07,44.07,44.07-19.73,44.07-44.07h0C88.15,19.74,68.43,0,44.09,0c0,0-.01,0-.02,0Zm0,17.06c8.64,0,15.63,7,15.63,15.64,0,8.64-7,15.63-15.64,15.63-8.64,0-15.63-7-15.63-15.64s7-15.63,15.64-15.63h0Zm0,61.12c-10.04,0-19.56-4.44-26.03-12.12,3.41-6.51,10.14-10.6,17.49-10.62,.43,0,.85,.07,1.26,.2,2.34,.79,4.8,1.2,7.27,1.23,2.47-.02,4.92-.44,7.27-1.23,.41-.13,.83-.19,1.26-.2,7.36,.02,14.1,4.11,17.51,10.62-6.47,7.68-15.99,12.11-26.03,12.12Z"/>
</svg>